<svg width="100" height="100" viewBox="0 0 100 100" fill="none" xmlns="http://www.w3.org/2000/svg">
<rect width="100" height="100" fill="#FFCC00"/>
<path d="M17.5859 42.9287L14.3911 47.2697H31.8032C32.6837 47.2697 32.6727 47.601 32.2424 48.1874C31.8054 48.7804 31.0742 49.8057 30.6285 50.4094C30.4024 50.7147 29.994 51.2704 31.3465 51.2704H38.4672L40.5775 48.4027C41.8862 46.6264 40.6915 42.931 36.0125 42.931L17.5859 42.9287Z" fill="#D40511"/>
<path d="M13.0975 57.0714L19.5156 48.35H27.4795C28.36 48.35 28.349 48.6837 27.9187 49.2677L26.2938 51.481C26.0677 51.7864 25.6593 52.3417 27.0118 52.3417H37.6786C36.7939 53.558 33.9129 57.0714 28.7487 57.0714H13.0975ZM49.8496 52.3397L46.3692 57.0714H37.1889L40.6692 52.3397H49.8496ZM63.9109 51.268H41.4596L47.5989 42.9287H56.7749L53.2572 47.711H57.3522L60.8742 42.9287H70.0502L63.9109 51.268ZM63.1229 52.3397L59.6426 57.0714H50.4666L53.9469 52.3397H63.1229ZM0 54.206H13.5213L12.7835 55.2094H0V54.206ZM0 52.3397H14.8958L14.1559 53.343H0V52.3397ZM0 56.0724H12.149L11.4134 57.0714H0V56.0724ZM99.9999 55.2094H86.5269L87.2669 54.206H99.9999V55.2094ZM99.9999 57.0714H85.1592L85.8926 56.0724H99.9999V57.0714ZM88.6392 52.3397H99.9999V53.3454H87.9016L88.6392 52.3397ZM82.7592 42.9287L76.6199 51.268H66.8949L73.0386 42.9287H82.7592ZM66.1089 52.3397C66.1089 52.3397 65.4392 53.2574 65.1122 53.6964C63.9616 55.2554 64.9782 57.069 68.7396 57.069H83.4772L86.9572 52.3397H66.1089Z" fill="#D40511"/>
</svg>
