<svg width="100" height="100" viewBox="0 0 100 100" fill="none" xmlns="http://www.w3.org/2000/svg">
<rect width="100" height="100" fill="#CC2229"/>
<path fill-rule="evenodd" clip-rule="evenodd" d="M3.87736 47.5025C4.14064 46.4128 4.44763 45.1422 6.2726 45.1422H13.6178C16.3124 45.1422 15.9546 46.6225 15.7416 47.5025L14.7731 51.5124H6.98872L6.69485 52.7283C6.50148 53.5286 7.03952 54.018 8.03913 54.018H14.1674L13.4857 56.8377H4.37935C1.62195 56.8377 1.86229 55.843 2.19877 54.4506L3.87736 47.5025ZM7.52294 49.3018H11.1642L11.4127 48.3268C11.4892 48.0274 11.5984 47.556 10.8976 47.556H8.68424C8.10741 47.556 7.87526 47.9149 7.78022 48.2907L7.52294 49.3018ZM26.9701 45.1417H19.8526C17.6676 45.1417 17.3536 46.3975 17.0843 47.5555C16.8155 48.7141 17.2268 49.777 18.641 50.7887C20.0552 51.7997 21.6333 52.4536 21.3668 53.3614C21.2548 53.7427 20.7801 54.0175 19.8275 54.0175H15.5231L14.8414 56.8371H21.9217C23.3048 56.8371 25.0167 56.8623 25.8339 55.5568C26.6511 54.2513 26.4205 53.2058 25.6826 52.1242C24.9441 51.0432 23.502 50.3484 22.4265 49.3013C21.7928 48.684 21.8272 47.5555 22.8558 47.5555H26.3867L26.9701 45.1417ZM28.3007 45.1417H30.5872L31.317 42.1221H35.4804L34.7512 45.1417H36.8821L36.2992 47.5555H34.1684L32.847 53.0244C32.6072 54.0175 32.9153 54.4299 34.1897 54.4299L33.6079 56.8371H30.549C27.7616 56.8371 28.2226 54.9308 28.4433 54.0175L30.0044 47.5555H27.7179L28.3007 45.1417ZM37.6315 47.5555L38.2149 45.1417H47.0972C49.2614 45.1417 48.9943 46.7542 48.8004 47.5555L47.1393 54.4299C46.704 56.233 47.2606 56.369 47.6134 56.8371H43.6494C43.2015 56.8371 42.6236 56.5089 42.4204 56.2931C41.4852 56.5777 41.4224 57.1807 39.4745 57.1463C37.5266 57.1119 35.3521 55.3716 35.534 53.0413C35.7159 50.7111 37.7522 49.3007 39.5919 49.3007H44.1099L44.3671 48.2361C44.5316 47.5544 43.9973 47.5544 43.6734 47.5544H37.6315V47.5555ZM43.7472 51.2601H41.016C39.9006 51.2601 38.3602 52.6033 39.6504 53.935C40.9417 55.2667 43.2812 53.2598 43.7472 51.2601ZM59.2221 42.1221H55.3165C54.3114 42.1221 53.0288 42.1221 52.5137 44.2557L52.2991 45.1417H50.5527L49.9694 47.5555H51.7168L49.6908 55.9419C49.6034 56.3029 49.469 56.5394 49.0265 56.8377H52.2013C53.2724 56.8377 53.8487 55.8452 54.1912 54.4304L55.8512 47.556H57.9105L58.4939 45.1422H56.4346L56.5586 44.6309C56.6482 44.2611 56.9661 43.9902 57.5243 43.9973L58.7659 44.0131L59.2221 42.1221ZM59.3597 47.5025C59.623 46.4128 59.9305 45.1422 61.755 45.1422H69.1002C71.7942 45.1422 71.4365 46.6225 71.2245 47.5025L70.256 51.5124H62.4711L62.1777 52.7283C61.9844 53.5286 62.5224 54.018 63.522 54.018H69.6513L68.9697 56.8377H59.8628C57.1048 56.8377 57.3452 55.843 57.6822 54.4506L59.3597 47.5025ZM63.0053 49.3018H66.6465L66.895 48.3268C66.9721 48.0274 67.0808 47.556 66.3799 47.556H64.1671C63.5898 47.556 63.3587 47.9149 63.2626 48.2907L63.0053 49.3018ZM73.0211 45.1417H75.3076L76.0374 42.1221H80.2014L79.4716 45.1417H81.6019L81.0196 47.5555H78.8882L77.5674 53.0244C77.3276 54.0175 77.6357 54.4299 78.9106 54.4299L78.3283 56.8371H75.2694C72.4825 56.8371 72.9424 54.9308 73.1637 54.0175L74.7253 47.5555H72.4377L73.0211 45.1417ZM82.3508 47.5555L82.9342 45.1417H91.816C93.9807 45.1417 93.7131 46.7542 93.5197 47.5555L91.8586 54.4299C91.4222 56.233 91.9793 56.369 92.3322 56.8371H88.3687C87.9208 56.8371 87.3423 56.5089 87.1386 56.2931C86.204 56.5777 86.1411 57.1807 84.1927 57.1463C82.2459 57.1124 80.0703 55.3716 80.2527 53.0413C80.4352 50.7111 82.471 49.3007 84.3102 49.3007H88.8281L89.0854 48.2361C89.2498 47.5544 88.715 47.5544 88.3916 47.5544H82.3508V47.5555ZM88.4659 51.2601H85.7347C84.6199 51.2601 83.0795 52.6033 84.3702 53.935C85.6604 55.2667 88 53.2598 88.4659 51.2601Z" fill="white"/>
<path d="M96.2896 44.7666C96.761 44.7666 97.1887 44.9589 97.4985 45.2686C97.6574 45.4272 97.7835 45.6155 97.8696 45.8229C97.9556 46.0303 97.9999 46.2526 97.9999 46.4771C97.9999 46.7017 97.9556 46.924 97.8696 47.1314C97.7835 47.3388 97.6574 47.5271 97.4985 47.6857C97.3399 47.8446 97.1516 47.9708 96.9443 48.0568C96.7369 48.1428 96.5147 48.1871 96.2902 48.1871C96.0657 48.1871 95.8434 48.1428 95.6361 48.0568C95.4287 47.9708 95.2404 47.8446 95.0819 47.6857L95.0808 47.6851C94.9219 47.5266 94.7959 47.3383 94.7099 47.1309C94.6239 46.9236 94.5796 46.7013 94.5796 46.4769C94.5796 46.2524 94.6239 46.0301 94.7099 45.8228C94.7959 45.6155 94.9219 45.4272 95.0808 45.2686C95.2393 45.1095 95.4277 44.9832 95.6352 44.897C95.8426 44.8109 96.065 44.7666 96.2896 44.7666Z" fill="white"/>
<path d="M96.6941 46.3728H97.0432C97.102 46.375 97.1607 46.3672 97.2169 46.3499C97.2584 46.3346 97.2906 46.31 97.3119 46.2761C97.3332 46.2423 97.3442 46.2057 97.3442 46.1663C97.345 46.1393 97.3398 46.1124 97.329 46.0877C97.3181 46.0629 97.3018 46.0409 97.2813 46.0232C97.2398 45.9861 97.1737 45.967 97.082 45.967H96.6947V46.3728H96.6941ZM96.5319 47.0572V45.832H97.0749C97.1847 45.832 97.2671 45.8435 97.3245 45.8654C97.3813 45.8872 97.4261 45.926 97.46 45.9817C97.4939 46.0373 97.5117 46.1012 97.5113 46.1663C97.5113 46.2532 97.4834 46.3264 97.4272 46.3859C97.3709 46.4455 97.2841 46.4837 97.1666 46.4995C97.2015 46.5155 97.2342 46.5358 97.2639 46.5602C97.3119 46.6039 97.3567 46.6585 97.3993 46.7229L97.6118 47.0561H97.4081L97.2458 46.8016C97.2096 46.7434 97.1704 46.687 97.1284 46.6328C97.1059 46.6011 97.0782 46.5734 97.0465 46.5509C97.0238 46.536 96.9989 46.5249 96.9727 46.5181C96.9427 46.5133 96.9124 46.5113 96.882 46.5121H96.6941V47.0561H96.5319V47.0572ZM95.0991 47.0572V45.832H95.3433L95.6322 46.6995C95.6601 46.7803 95.6792 46.8409 95.6907 46.8808C95.7044 46.8366 95.7267 46.771 95.7568 46.6847L96.049 45.832H96.2675V47.0572H96.1108V46.0325L95.7557 47.0572H95.6093L95.2553 46.0145V47.0572H95.0991Z" fill="white"/>
</svg>
