<svg width="100" height="100" viewBox="0 0 100 100" fill="none" xmlns="http://www.w3.org/2000/svg">
<rect width="100" height="100" fill="#1A39F3"/>
<g clip-path="url(#clip0_111_29)">
<path d="M55.5746 68.0352H57.6076C58.4234 68.0352 59.0362 68.2854 59.4505 68.7815C59.8647 69.2776 60.0718 70.0197 60.0718 71.0035C60.0718 71.7668 59.9788 72.3859 59.7928 72.8524C59.6069 73.3188 59.3195 73.6666 58.9221 73.887C58.5248 74.1076 58.0049 74.2178 57.3582 74.2178H55.5703V68.0352H55.5746ZM57.502 73.4291C58.0641 73.4291 58.4741 73.2382 58.7277 72.8566C58.9813 72.475 59.1123 71.8558 59.1123 71.0035C59.1123 70.2487 58.9897 69.6974 58.7446 69.3498C58.4995 68.9978 58.1064 68.8239 57.5738 68.8239H56.534V73.4333H57.502V73.4291Z" fill="white"/>
<path d="M55.5746 68.0352H57.6076C58.4234 68.0352 59.0362 68.2854 59.4505 68.7815C59.8647 69.2776 60.0718 70.0197 60.0718 71.0035C60.0718 71.7668 59.9788 72.3859 59.7928 72.8524C59.6069 73.3188 59.3195 73.6666 58.9221 73.887C58.5248 74.1076 58.0049 74.2178 57.3582 74.2178H55.5703V68.0352H55.5746ZM57.502 73.4291C58.0641 73.4291 58.4741 73.2382 58.7277 72.8566C58.9813 72.475 59.1123 71.8558 59.1123 71.0035C59.1123 70.2487 58.9897 69.6974 58.7446 69.3498C58.4995 68.9978 58.1064 68.8239 57.5738 68.8239H56.534V73.4333H57.502V73.4291Z" fill="white"/>
<path d="M64.7595 72.3439H61.6275C61.674 72.7425 61.8008 73.0479 62.0122 73.2514C62.2193 73.4592 62.5067 73.561 62.8702 73.561C63.3858 73.561 63.8043 73.3574 64.1213 72.9504L64.6074 73.4168C64.4383 73.6924 64.1931 73.9087 63.8762 74.0656C63.5591 74.2225 63.2083 74.2988 62.8279 74.2988C62.1728 74.2988 61.6571 74.0953 61.2936 73.6924C60.9259 73.2896 60.7441 72.7299 60.7441 72.0089C60.7441 71.2923 60.9301 70.7284 61.2978 70.317C61.6655 69.9099 62.1728 69.7021 62.8195 69.7021C63.4281 69.7021 63.9057 69.9057 64.2481 70.3085C64.5904 70.7114 64.7637 71.2754 64.7637 72.0005V72.3439H64.7595ZM63.9353 71.657C63.9353 71.2753 63.8339 70.9743 63.6268 70.758C63.4196 70.5417 63.1407 70.4315 62.7814 70.4315C62.4475 70.4315 62.1812 70.5418 61.9826 70.7665C61.7839 70.9913 61.6613 71.3093 61.6233 71.7206H63.9396V71.657H63.9353Z" fill="white"/>
<path d="M64.7595 72.3439H61.6275C61.674 72.7425 61.8008 73.0479 62.0122 73.2514C62.2193 73.4592 62.5067 73.561 62.8702 73.561C63.3858 73.561 63.8043 73.3574 64.1213 72.9504L64.6074 73.4168C64.4383 73.6924 64.1931 73.9087 63.8762 74.0656C63.5591 74.2225 63.2083 74.2988 62.8279 74.2988C62.1728 74.2988 61.6571 74.0953 61.2936 73.6924C60.9259 73.2896 60.7441 72.7299 60.7441 72.0089C60.7441 71.2923 60.9301 70.7284 61.2978 70.317C61.6655 69.9099 62.1728 69.7021 62.8195 69.7021C63.4281 69.7021 63.9057 69.9057 64.2481 70.3085C64.5904 70.7114 64.7637 71.2754 64.7637 72.0005V72.3439H64.7595ZM63.9353 71.657C63.9353 71.2753 63.8339 70.9743 63.6268 70.758C63.4196 70.5417 63.1407 70.4315 62.7814 70.4315C62.4475 70.4315 62.1812 70.5418 61.9826 70.7665C61.7839 70.9913 61.6613 71.3093 61.6233 71.7206H63.9396V71.657H63.9353Z" fill="white"/>
<path d="M65.8962 74.0193C65.7272 73.8285 65.6426 73.5443 65.6426 73.1669V67.667H66.5133V73.1669C66.5133 73.3493 66.5471 73.4807 66.6148 73.5571C66.6824 73.6334 66.7923 73.6715 66.9444 73.6715C67.067 73.6715 67.2192 73.6334 67.4009 73.5571L67.532 74.0617C67.3037 74.2271 67.0078 74.3076 66.6528 74.3076C66.3188 74.3034 66.0653 74.2101 65.8962 74.0193Z" fill="white"/>
<path d="M65.8962 74.0193C65.7272 73.8285 65.6426 73.5443 65.6426 73.1669V67.667H66.5133V73.1669C66.5133 73.3493 66.5471 73.4807 66.6148 73.5571C66.6824 73.6334 66.7923 73.6715 66.9444 73.6715C67.067 73.6715 67.2192 73.6334 67.4009 73.5571L67.532 74.0617C67.3037 74.2271 67.0078 74.3076 66.6528 74.3076C66.3188 74.3034 66.0653 74.2101 65.8962 74.0193Z" fill="white"/>
<path d="M68.3351 68.9724C68.2295 68.8706 68.1787 68.7349 68.1787 68.5652C68.1787 68.3956 68.2295 68.26 68.3351 68.1582C68.4408 68.0564 68.5845 68.0098 68.7663 68.0098C68.948 68.0098 69.0917 68.0606 69.2016 68.1582C69.3115 68.26 69.3664 68.3956 69.3664 68.5652C69.3664 68.7349 69.3115 68.8706 69.2016 68.9724C69.0917 69.0741 68.948 69.1208 68.7663 69.1208C68.5845 69.1208 68.4408 69.0741 68.3351 68.9724ZM68.3351 69.8035H69.2058V74.2178H68.3351V69.8035Z" fill="white"/>
<path d="M68.3351 68.9724C68.2295 68.8706 68.1787 68.7349 68.1787 68.5652C68.1787 68.3956 68.2295 68.26 68.3351 68.1582C68.4408 68.0564 68.5845 68.0098 68.7663 68.0098C68.948 68.0098 69.0917 68.0606 69.2016 68.1582C69.3115 68.26 69.3664 68.3956 69.3664 68.5652C69.3664 68.7349 69.3115 68.8706 69.2016 68.9724C69.0917 69.0741 68.948 69.1208 68.7663 69.1208C68.5845 69.1208 68.4408 69.0741 68.3351 68.9724ZM68.3351 69.8035H69.2058V74.2178H68.3351V69.8035Z" fill="white"/>
<path d="M74.1422 69.8037L72.4515 74.218H71.678L69.9873 69.8037H70.8834L72.0626 73.1748L73.2334 69.8037H74.1422Z" fill="white"/>
<path d="M74.1422 69.8037L72.4515 74.218H71.678L69.9873 69.8037H70.8834L72.0626 73.1748L73.2334 69.8037H74.1422Z" fill="white"/>
<path d="M78.3904 72.3439H75.2584C75.3049 72.7425 75.4317 73.0479 75.6433 73.2514C75.85 73.4592 76.1377 73.561 76.5012 73.561C77.0169 73.561 77.4355 73.3574 77.7525 72.9504L78.2382 73.4168C78.0695 73.6924 77.8242 73.9087 77.5073 74.0656C77.1903 74.2225 76.8395 74.2988 76.4587 74.2988C75.8035 74.2988 75.288 74.0953 74.9245 73.6924C74.5568 73.2896 74.375 72.7299 74.375 72.0089C74.375 71.2923 74.561 70.7284 74.9287 70.317C75.2965 69.9099 75.8035 69.7021 76.4501 69.7021C77.0587 69.7021 77.5365 69.9057 77.8787 70.3085C78.2216 70.7114 78.3944 71.2754 78.3944 72.0005V72.3439H78.3904ZM77.5618 71.657C77.5618 71.2753 77.4608 70.9743 77.2534 70.758C77.0461 70.5417 76.7677 70.4315 76.4082 70.4315C76.0739 70.4315 75.8081 70.5418 75.6095 70.7665C75.4106 70.9913 75.288 71.3093 75.25 71.7206H77.5664V71.657H77.5618Z" fill="white"/>
<path d="M78.3904 72.3439H75.2584C75.3049 72.7425 75.4317 73.0479 75.6433 73.2514C75.85 73.4592 76.1377 73.561 76.5012 73.561C77.0169 73.561 77.4355 73.3574 77.7525 72.9504L78.2382 73.4168C78.0695 73.6924 77.8242 73.9087 77.5073 74.0656C77.1903 74.2225 76.8395 74.2988 76.4587 74.2988C75.8035 74.2988 75.288 74.0953 74.9245 73.6924C74.5568 73.2896 74.375 72.7299 74.375 72.0089C74.375 71.2923 74.561 70.7284 74.9287 70.317C75.2965 69.9099 75.8035 69.7021 76.4501 69.7021C77.0587 69.7021 77.5365 69.9057 77.8787 70.3085C78.2216 70.7114 78.3944 71.2754 78.3944 72.0005V72.3439H78.3904ZM77.5618 71.657C77.5618 71.2753 77.4608 70.9743 77.2534 70.758C77.0461 70.5417 76.7677 70.4315 76.4082 70.4315C76.0739 70.4315 75.8081 70.5418 75.6095 70.7665C75.4106 70.9913 75.288 71.3093 75.25 71.7206H77.5664V71.657H77.5618Z" fill="white"/>
<path d="M79.244 70.881C79.244 70.3806 79.2354 70.0202 79.2188 69.8039H80.0388C80.064 70.0414 80.0726 70.3 80.0726 70.5799V70.669H80.0979C80.2162 70.3678 80.4022 70.1346 80.6554 69.965C80.9093 69.7954 81.2096 69.7148 81.5558 69.7148C81.6489 69.7148 81.7332 69.7233 81.8097 69.7403V70.4484C81.7671 70.4357 81.6788 70.4314 81.5346 70.4314C81.2767 70.4314 81.0362 70.5078 80.8162 70.6562C80.5963 70.8046 80.4235 71.0082 80.2966 71.2668C80.1697 71.5213 80.1059 71.8054 80.1059 72.1107V74.2224H79.2354V70.881H79.244Z" fill="white"/>
<path d="M79.244 70.881C79.244 70.3806 79.2354 70.0202 79.2188 69.8039H80.0388C80.064 70.0414 80.0726 70.3 80.0726 70.5799V70.669H80.0979C80.2162 70.3678 80.4022 70.1346 80.6554 69.965C80.9093 69.7954 81.2096 69.7148 81.5558 69.7148C81.6489 69.7148 81.7332 69.7233 81.8097 69.7403V70.4484C81.7671 70.4357 81.6788 70.4314 81.5346 70.4314C81.2767 70.4314 81.0362 70.5078 80.8162 70.6562C80.5963 70.8046 80.4235 71.0082 80.2966 71.2668C80.1697 71.5213 80.1059 71.8054 80.1059 72.1107V74.2224H79.2354V70.881H79.244Z" fill="white"/>
<path d="M86.0025 69.8037L84.3751 74.341C83.9817 75.4308 83.3564 75.9736 82.4899 75.9736C82.3251 75.9736 82.139 75.9481 81.9277 75.893V75.2145C82.05 75.2612 82.1982 75.2866 82.367 75.2866C82.6547 75.2866 82.8999 75.1848 83.0986 74.977C83.2973 74.7693 83.4873 74.43 83.6694 73.9551L82.0334 69.8079H82.9677L84.0748 73.0137L85.0595 69.8079H86.0025V69.8037Z" fill="white"/>
<path d="M86.0025 69.8037L84.3751 74.341C83.9817 75.4308 83.3564 75.9736 82.4899 75.9736C82.3251 75.9736 82.139 75.9481 81.9277 75.893V75.2145C82.05 75.2612 82.1982 75.2866 82.367 75.2866C82.6547 75.2866 82.8999 75.1848 83.0986 74.977C83.2973 74.7693 83.4873 74.43 83.6694 73.9551L82.0334 69.8079H82.9677L84.0748 73.0137L85.0595 69.8079H86.0025V69.8037Z" fill="white"/>
<path d="M15.0228 35.0231C15.0228 36.6896 13.6745 38.0424 12.0133 38.0424C10.3522 38.0424 9.00391 36.6896 9.00391 35.0231C9.00391 33.3566 10.3522 32.0039 12.0133 32.0039C13.6745 32.0039 15.0228 33.3524 15.0228 35.0231Z" fill="white"/>
<path d="M12.1447 38.0427H11.8784C10.2892 38.0427 9 36.7493 9 35.1549V34.8878C9 33.2933 10.2892 32 11.8784 32H12.1447C13.7339 32 15.0231 33.2933 15.0231 34.8878V35.1549C15.0231 36.7493 13.7339 38.0427 12.1447 38.0427Z" fill="white"/>
<path fill-rule="evenodd" clip-rule="evenodd" d="M15.027 57.757V50.0351V50.0054V42.2877C15.027 40.6255 13.6829 39.2812 12.0303 39.2812H12.0007C10.3438 39.2812 9.00391 40.6297 9.00391 42.2877V49.7288C9.08568 48.2077 10.3416 46.9989 11.8781 46.9989H12.1444C13.7336 46.9989 15.0228 48.2923 15.0228 49.8867V50.1539C15.0228 51.7483 13.7336 53.0416 12.1444 53.0416H11.8781C10.3416 53.0416 9.08568 51.8328 9.00391 50.3117V57.757C9.00391 59.4193 10.348 60.7635 12.0007 60.7635H12.0303C13.6829 60.7635 15.0228 59.4193 15.027 57.757Z" fill="white"/>
<path d="M35.7887 60.7634H31.3887L26.3335 46.4348V60.7634H20.1963V33.6582H26.6041L35.7887 60.7634Z" fill="white"/>
<path d="M40.5776 33.6582H46.9853V60.7634H40.8481V46.4348L35.7887 60.7634H31.3887L40.5776 33.6582Z" fill="white"/>
<path d="M57.6373 41.4014H52.1553V60.7634H57.6373V41.4014Z" fill="white"/>
<path d="M63.7363 59.796C62.8107 58.8927 62.3457 57.5867 62.3457 55.8863V32.0293H67.8278V56.0007C67.8278 56.9294 68.3942 57.3959 69.527 57.3959C70.1694 57.3959 70.9302 57.2135 71.8051 56.8531L72.6167 59.7197C71.3825 60.6737 69.7467 61.1529 67.7136 61.1529C65.9849 61.1487 64.662 60.6992 63.7363 59.796Z" fill="white"/>
<path d="M90.9856 53.0968H77.7095C77.942 54.2586 78.4238 55.1237 79.1548 55.692C79.8904 56.2602 80.8838 56.5443 82.1477 56.5443C83.2548 56.5443 84.2183 56.362 85.043 56.0015C85.8669 55.641 86.6909 55.022 87.5109 54.1442L90.4447 56.9344C89.6965 58.1981 88.5343 59.22 86.9534 59.9918C85.3726 60.7678 83.6521 61.1537 81.8008 61.1537C78.766 61.1537 76.3825 60.2717 74.662 58.4992C72.9375 56.7308 72.0752 54.2841 72.0752 51.1589C72.0752 48.0082 72.9375 45.5318 74.662 43.7253C76.3864 41.9188 78.7534 41.0156 81.763 41.0156C84.6456 41.0156 86.9029 41.9146 88.5383 43.7084C90.1743 45.502 90.9896 47.9743 90.9896 51.125V53.0968H90.9856ZM85.5799 49.187C85.5799 48.0506 85.233 47.1558 84.5359 46.4944C83.8422 45.837 82.8873 45.5063 81.6786 45.5063C80.5961 45.5063 79.709 45.8498 79.0152 46.5325C78.3221 47.2152 77.8577 48.1778 77.6251 49.416H85.5752V49.187H85.5799Z" fill="white"/>
<path d="M54.8977 39.2811C53.2155 39.2811 51.8545 37.9114 51.8545 36.228C51.8545 34.5402 53.2197 33.1748 54.8977 33.1748C56.58 33.1748 57.941 34.5445 57.941 36.228C57.941 37.9157 56.5757 39.2811 54.8977 39.2811Z" fill="white"/>
</g>
<defs>
<clipPath id="clip0_111_29">
<rect width="82" height="44" fill="white" transform="translate(9 32)"/>
</clipPath>
</defs>
</svg>
