<svg width="100" height="100" viewBox="0 0 100 100" fill="none" xmlns="http://www.w3.org/2000/svg">
<rect width="100" height="100" fill="#FF0000"/>
<path d="M30.3187 25H38.0256C36.0095 33.8765 33.9781 42.7491 31.9492 51.6229C25.0609 51.6165 18.1725 51.6358 11.2842 51.6306C12.2717 49.8705 13.1491 48.0514 14.1007 46.2732C17.8946 46.2912 21.6884 46.2771 25.4823 46.2797C27.0961 39.1877 28.6921 32.0894 30.3187 25Z" fill="white"/>
<path d="M41.953 25H59.1227C57.7701 27.4417 56.4355 29.8936 55.0753 32.3328C55.0778 31.6833 55.2072 31.0325 55.1175 30.3868C54.9856 29.6451 54.3375 29.1263 53.6663 28.8701C52.4547 28.4076 51.0009 28.4153 49.8879 29.1365C48.3611 30.0666 47.6848 32.1726 48.4597 33.7996C49.1783 35.2267 50.249 36.4386 51.3506 37.5813C52.6814 38.9251 54.1018 40.1818 55.6068 41.3271C55.8386 41.044 56.0141 40.7211 56.1281 40.374C56.5008 39.2876 56.7365 38.159 56.9542 37.033C58.7282 37.5377 60.5009 38.0489 62.2749 38.5562C61.9406 41.222 60.8877 43.7675 59.4109 46.0004C60.9428 47.872 62.4811 49.7398 64.0117 51.6127C61.6844 51.6178 59.3584 51.6101 57.0324 51.6165C56.529 51.0926 56.0461 50.5494 55.5428 50.0267C53.2014 51.1156 50.6205 51.6486 48.0473 51.7318C45.0642 51.7754 41.9569 51.0951 39.5335 49.285C38.1656 47.9425 37.3574 45.9645 37.602 44.0378C37.7903 42.4928 38.5473 41.0773 39.4836 39.8577C40.7017 38.2923 42.2182 36.974 43.8666 35.8787C42.0722 33.8739 40.8528 31.1747 41.1833 28.4435C41.4177 27.2905 41.693 26.1465 41.953 25ZM44.4994 42.7222C44.0767 43.3921 43.9601 44.2697 44.32 44.9922C44.94 46.2579 46.2823 47.1047 47.6822 47.1802C49.3461 47.284 50.9702 46.6845 52.397 45.8748C50.7537 43.9302 49.1322 41.9676 47.4735 40.0383C46.3963 40.8223 45.1987 41.5474 44.4994 42.7222Z" fill="white"/>
<path d="M63.0567 25H94.2593C93.6573 25.5803 93.0732 26.1799 92.4763 26.764C89.8852 26.7615 87.2953 26.7589 84.7055 26.7653C84.3801 27.0907 84.051 27.411 83.7269 27.7376C86.3193 27.7402 88.9118 27.7351 91.5042 27.7402C90.997 28.1975 90.5679 28.7766 90.0146 29.1596C87.4145 29.1865 84.8131 29.1686 82.213 29.1673C81.8748 29.4875 81.5431 29.8155 81.2165 30.146C83.8371 30.1511 86.4577 30.146 89.0783 30.1486C88.3687 30.8621 87.654 31.568 86.9393 32.2764C84.0779 32.279 81.2165 32.2828 78.3538 32.2738C76.731 38.7201 75.1402 45.1741 73.5237 51.6229C71.0146 51.614 68.5054 51.6383 65.9975 51.6101C67.5128 45.1459 69.2086 38.7253 70.802 32.279C66.8941 32.2764 62.985 32.2815 59.0771 32.2764C60.4079 29.8526 61.7144 27.4161 63.0567 25Z" fill="white"/>
<path d="M66.4035 61.9887C67.2305 60.6862 68.7526 59.9843 70.2459 59.7982C71.6851 59.6392 73.2055 59.7525 74.5144 60.4207C74.2066 61.2427 73.8921 62.0614 73.5927 62.8851C72.4613 62.3709 71.1355 62.0614 69.9212 62.4589C69.2177 62.672 68.641 63.4991 69.0232 64.2146C69.4713 64.9606 70.3254 65.3005 71.0391 65.7369C72.1265 66.3205 73.2055 67.1662 73.5471 68.4078C73.9022 69.8912 73.4338 71.5827 72.2652 72.5891C71.2707 73.4669 69.9449 73.8374 68.6511 73.9659H67.3354C66.1972 73.8509 65.0354 73.6327 64.0596 73.0018C64.3894 72.1899 64.7208 71.3797 65.0506 70.5678C66.2666 71.2241 67.6922 71.6114 69.0739 71.3577C69.7825 71.2241 70.5013 70.6828 70.5131 69.903C70.5672 69.0996 69.8519 68.5752 69.2346 68.2183C68.1827 67.6297 67.0479 67.0597 66.3427 66.0414C65.4971 64.854 65.656 63.1828 66.4035 61.9887Z" fill="white"/>
<path d="M76.8781 61.9819C77.7085 60.6794 79.2305 59.9826 80.7238 59.7965C82.1613 59.6392 83.6766 59.7576 84.9856 60.419C84.6778 61.241 84.3615 62.0597 84.0639 62.8851C83.0289 62.4098 81.8569 62.1341 80.7238 62.3591C80.1404 62.4809 79.5383 62.8597 79.403 63.4754C79.2812 63.9355 79.5265 64.399 79.8748 64.6899C80.7458 65.4375 81.8688 65.8097 82.7431 66.5539C83.4043 67.0986 83.9387 67.8428 84.0808 68.7021C84.2888 70.0671 83.8627 71.5573 82.8293 72.5011C81.8332 73.4399 80.4617 73.8306 79.1307 73.9659H77.8116C76.6701 73.8509 75.5065 73.6327 74.5273 73.0018C74.8588 72.1899 75.1903 71.3797 75.5218 70.5678C76.7411 71.2274 78.1718 71.6131 79.5569 71.356C80.2571 71.2207 80.9657 70.6828 80.9826 69.9132C81.0418 69.1148 80.3382 68.5837 79.7226 68.2285C78.6707 67.6364 77.5326 67.0698 76.8223 66.0515C75.9648 64.8624 76.1238 63.1811 76.8781 61.9819Z" fill="white"/>
<path d="M10.6247 59.9592C13.361 59.9592 16.0957 59.9525 18.832 59.9626C18.6612 60.8033 18.5005 61.6439 18.3348 62.4846C16.5963 62.4863 14.8594 62.4846 13.1226 62.4846C12.9399 63.469 12.715 64.445 12.5696 65.4345C14.2032 65.4108 15.8386 65.4311 17.474 65.4244C17.3201 66.2515 17.1594 67.0786 17.0021 67.9057C15.3617 67.9125 13.7196 67.9057 12.0774 67.9091C11.8677 69.0221 11.6394 70.13 11.4517 71.2464C13.2883 71.2295 15.1249 71.243 16.9616 71.2396C16.8043 72.082 16.647 72.9243 16.488 73.765C13.6587 73.7667 10.8293 73.7667 8 73.765C8.86927 69.1625 9.75206 64.5617 10.6247 59.9592Z" fill="white"/>
<path d="M20.1312 59.957C21.1763 59.9587 22.2198 59.957 23.2649 59.9587C23.7824 61.5775 24.3185 63.1945 24.7261 64.8471C24.9155 64.7253 25.0018 64.5138 25.1066 64.3244C25.8879 62.8224 26.8316 61.4134 27.7009 59.9621C28.8847 59.9536 30.0685 59.9587 31.254 59.9587C29.573 62.2202 27.8886 64.4783 26.2042 66.7347C27.0802 69.0808 27.9715 71.4201 28.8509 73.7645C27.7956 73.7611 26.7403 73.7746 25.685 73.756C25.1218 72.0459 24.5147 70.3477 24.0107 68.619C23.0079 70.3376 21.9881 72.0493 20.9615 73.7543C19.7676 73.778 18.5719 73.7594 17.3779 73.7645C19.0962 71.4015 20.8533 69.0656 22.5546 66.6891C21.7293 64.4529 20.9396 62.2016 20.1312 59.957Z" fill="white"/>
<path d="M32.8617 60.2181C34.5411 59.8798 36.2847 59.7394 37.9877 59.9694C39.3762 60.1622 40.8289 60.8929 41.3836 62.2546C42.1074 64.1439 41.3616 66.4393 39.7398 67.625C38.1518 68.8006 36.0564 69.0018 34.1437 68.7989C33.8274 70.4548 33.5162 72.1108 33.2 73.7667C32.2343 73.7701 31.2687 73.7566 30.3047 73.7735C31.13 69.2505 32.0128 64.736 32.8617 60.2181ZM35.3799 62.307C35.1212 63.6686 34.8557 65.0303 34.6003 66.3936C35.7097 66.5881 36.9832 66.5323 37.8626 65.7424C38.676 65.0489 38.994 63.6653 38.2701 62.8026C37.5192 62.0499 36.3422 62.2005 35.3799 62.307Z" fill="white"/>
<path d="M44.4836 60.2174C45.9448 59.9163 47.4448 59.8114 48.9331 59.8791C50.2268 59.962 51.6136 60.2732 52.5522 61.2306C53.4654 62.1693 53.55 63.6629 53.0866 64.8368C52.5962 66.0665 51.4225 66.8835 50.193 67.2607C50.8593 67.6311 51.2618 68.3212 51.4005 69.0553C51.7117 70.6131 51.6474 72.2268 52.0567 73.7677C51.0403 73.761 50.0239 73.7694 49.0092 73.7627C48.7504 72.5414 48.7031 71.2914 48.5542 70.055C48.4781 69.4613 48.2684 68.7881 47.6917 68.5022C47.1151 68.24 46.4623 68.3415 45.85 68.3195C45.5034 70.1345 45.1634 71.9494 44.8218 73.7643C43.8409 73.7694 42.8601 73.7593 41.8809 73.7711C42.7298 69.2498 43.6143 64.7353 44.4836 60.2174ZM47.0017 62.3131C46.7853 63.58 46.5164 64.8368 46.2813 66.1003C47.3518 66.1037 48.5576 66.2103 49.4438 65.4795C50.2522 64.8791 50.6158 63.5158 49.8497 62.7428C49.0802 62.0695 47.942 62.1372 47.0017 62.3131Z" fill="white"/>
<path d="M56.4711 59.9588C59.2041 59.9571 61.9387 59.9588 64.6733 59.9588C64.511 60.8011 64.3469 61.6435 64.1812 62.4841C62.4427 62.4858 60.7041 62.4841 58.9656 62.4858C58.7779 63.4652 58.5834 64.4428 58.3974 65.4222C60.0361 65.4256 61.6766 65.4239 63.3187 65.4239C63.1648 66.2527 63.0058 67.0798 62.8469 67.907C61.2047 67.9086 59.5643 67.9086 57.9238 67.907C57.7091 69.0166 57.496 70.1279 57.288 71.2392C59.1263 71.2375 60.9663 71.2375 62.8063 71.2392C62.6473 72.0815 62.4934 72.9239 62.3311 73.7662C59.5017 73.7645 56.6724 73.7662 53.8447 73.7662C54.7157 69.162 55.5968 64.5612 56.4711 59.9588Z" fill="white"/>
</svg>
