<svg width="100" height="100" viewBox="0 0 100 100" fill="none" xmlns="http://www.w3.org/2000/svg">
<rect width="100" height="100" fill="white"/>
<path fill-rule="evenodd" clip-rule="evenodd" d="M9.48298 39.5856H11.8311V53.6279C11.8311 54.7017 12.3781 55.1367 13.5702 55.1367H94.9999V56.9975H11.6614C11.0546 56.9975 9.48298 56.9032 9.48298 55.1043V39.5856ZM11.9792 57.6735H94.9999V59.5342H5.77836C4.45607 59.5342 3.87988 59.027 3.87988 57.742V39.5856H8.84324V54.1137C8.84324 56.988 9.3459 57.6735 11.9792 57.6735ZM19.4453 47.8633C19.4668 47.8633 19.499 47.8653 19.5419 47.8698C19.5869 47.8741 19.6193 47.8761 19.6405 47.8761C20.029 47.8761 20.3251 47.7647 20.529 47.5395C20.7328 47.3165 20.8336 46.9941 20.8336 46.5736C20.8336 46.1381 20.737 45.8161 20.544 45.6082C20.3531 45.4024 20.0505 45.2971 19.6405 45.2971C19.6193 45.2971 19.5869 45.2992 19.5419 45.3033C19.499 45.308 19.4668 45.3101 19.4453 45.3101V47.8633ZM17.673 53.0602V43.8832H19.5763C20.5869 43.8832 21.3379 44.102 21.8272 44.5396C22.3186 44.9772 22.563 45.6471 22.563 46.5482C22.563 47.4083 22.3271 48.0758 21.8529 48.5499C21.3789 49.0265 20.7156 49.2644 19.8595 49.2644C19.7524 49.2644 19.6685 49.2644 19.6128 49.2624C19.5549 49.2601 19.501 49.2559 19.4518 49.2516L19.4453 53.0602H17.673ZM24.7432 50.0241H25.964C25.8375 49.3825 25.7259 48.7109 25.625 48.0092C25.5242 47.3077 25.4363 46.5674 25.3611 45.7886C25.2688 46.4751 25.1702 47.1724 25.0672 47.8783C24.9642 48.5843 24.8568 49.2989 24.7432 50.0241ZM22.2991 53.0602L24.4362 43.8832H26.3546L28.3909 53.0602H26.5605L26.2537 51.4511H24.4104L24.1274 53.0602H22.2991ZM32.2616 49.5475L33.1222 50.4962C33.2058 50.2408 33.2682 49.9532 33.3067 49.6314C33.3474 49.3116 33.3669 48.9298 33.3669 48.4899C33.3669 47.5027 33.2487 46.7561 33.0128 46.2563C32.7744 45.7565 32.4269 45.505 31.9655 45.505C31.487 45.505 31.133 45.7627 30.9035 46.2755C30.6738 46.7882 30.558 47.5799 30.558 48.6488C30.558 49.5649 30.676 50.2645 30.912 50.7451C31.1502 51.2235 31.4935 51.4638 31.9463 51.4638C31.985 51.4638 32.0257 51.4618 32.0729 51.4574C32.1181 51.4531 32.1717 51.4466 32.2296 51.4381L31.2682 50.3694L32.2616 49.5475ZM35.272 52.8649L34.2788 53.7275L33.4163 52.7771C33.225 52.9036 33.0106 52.9958 32.7724 53.0581C32.5365 53.1183 32.2659 53.1483 31.9655 53.1483C30.9464 53.1483 30.1567 52.7278 29.5926 51.8845C29.0281 51.0432 28.747 49.8588 28.747 48.3332C28.747 46.9173 29.0346 45.8011 29.6075 44.986C30.1825 44.1705 30.9679 43.763 31.9655 43.763C32.9936 43.763 33.7873 44.1834 34.3515 45.0223C34.9159 45.8633 35.1971 47.0521 35.1971 48.5908C35.1971 49.346 35.1262 49.9897 34.9824 50.5241C34.8408 51.0584 34.6221 51.496 34.328 51.8351L35.272 52.8649ZM42.0075 43.8832V49.6464C42.0075 50.3524 41.986 50.8522 41.9453 51.1463C41.9023 51.4424 41.8337 51.687 41.7373 51.878C41.5141 52.3199 41.1943 52.644 40.7716 52.8562C40.351 53.0689 39.8102 53.174 39.1474 53.174C38.4843 53.174 37.9415 53.0689 37.5166 52.8562C37.0895 52.644 36.7677 52.3199 36.551 51.878C36.4501 51.6826 36.3794 51.4339 36.3365 51.1376C36.2958 50.8394 36.2741 50.3437 36.2741 49.6464V49.3762V43.8832H38.1044V49.7924C38.1044 50.5412 38.1817 51.0262 38.334 51.2407C38.4863 51.4574 38.7569 51.5647 39.1474 51.5647C39.5443 51.5647 39.8187 51.4553 39.967 51.2342C40.115 51.0155 40.19 50.5348 40.19 49.7924V43.8832H42.0075ZM43.3958 53.0602V43.8832H47.2557V45.5802H45.1681V47.4342H47.0607V49.1186H45.1681V51.2686H47.2557V53.0602H43.3958ZM49.3543 53.0602V45.5802H47.9532V43.8832H52.5964V45.5802H51.1955V53.0602H49.3543ZM53.5042 53.0602V43.8832H57.3642V45.5802H55.2769V47.4342H57.1693V49.1186H55.2769V51.2686H57.3642V53.0602H53.5042ZM61.6644 53.0602L60.9411 51.1935C60.8706 51.0005 60.8037 50.79 60.7436 50.5626C60.684 50.333 60.6301 50.0927 60.5829 49.8416C60.5378 50.097 60.4864 50.3394 60.4325 50.5669C60.3771 50.7963 60.3211 51.0047 60.2635 51.1935L59.6346 53.0602H57.5467L59.6709 48.4148L57.7354 43.8832H59.6579L60.3511 45.8119C60.3874 45.9172 60.4305 46.0587 60.4756 46.2345C60.5227 46.4108 60.5746 46.6379 60.6347 46.9194C60.684 46.6809 60.7353 46.4663 60.7846 46.2775C60.8338 46.0888 60.8857 45.9322 60.9349 45.8052L61.6152 43.8832H63.5076L61.5763 48.4148L63.6512 53.0602H61.6644ZM65.8054 47.8633C65.8267 47.8633 65.8588 47.8653 65.9019 47.8698C65.947 47.8741 65.9796 47.8761 66.0009 47.8761C66.3892 47.8761 66.6853 47.7647 66.889 47.5395C67.0928 47.3165 67.1939 46.9941 67.1939 46.5736C67.1939 46.1381 67.0969 45.8161 66.9041 45.6082C66.7133 45.4024 66.4105 45.2971 66.0009 45.2971C65.9796 45.2971 65.947 45.2992 65.9019 45.3033C65.8588 45.308 65.8267 45.3101 65.8054 45.3101V47.8633ZM64.0333 53.0602V43.8832H65.9366C66.9471 43.8832 67.6978 44.102 68.1873 44.5396C68.6788 44.9772 68.923 45.6471 68.923 46.5482C68.923 47.4083 68.6871 48.0758 68.2132 48.5499C67.7388 49.0265 67.0757 49.2644 66.2197 49.2644C66.1124 49.2644 66.0284 49.2644 65.9729 49.2624C65.9148 49.2601 65.8614 49.2559 65.8116 49.2516L65.8054 53.0602H64.0333ZM71.6631 47.8633C71.6849 47.8633 71.7191 47.8653 71.7663 47.8698C71.8155 47.8741 71.8503 47.8761 71.8715 47.8761C72.2687 47.8761 72.5689 47.7647 72.7685 47.5436C72.9702 47.3207 73.0707 46.9941 73.0707 46.5606C73.0707 46.121 72.9785 45.8011 72.7944 45.5999C72.6093 45.3977 72.3158 45.2971 71.9078 45.2971C71.8456 45.2971 71.7963 45.2992 71.7642 45.3013C71.73 45.3033 71.6999 45.3054 71.6698 45.3101L71.6631 47.8633ZM69.891 53.0602V43.8832H71.7963C72.8437 43.8832 73.6032 44.0891 74.0729 44.4992C74.5447 44.9108 74.7812 45.5652 74.7812 46.4663C74.7812 47.1211 74.6609 47.6468 74.4203 48.0414C74.1782 48.4383 73.8158 48.7152 73.3284 48.8739L75.0902 53.0602H73.1589L71.6631 49.2644V53.0602H69.891ZM75.8 53.0602V43.8832H79.6605V45.5802H77.5726V47.4342H79.465V49.1186H77.5726V51.2686H79.6605V53.0602H75.8ZM80.615 52.7406V50.835C80.8447 51.0369 81.0723 51.187 81.2932 51.2879C81.5166 51.3887 81.7416 51.4381 81.9666 51.4381C82.2782 51.4381 82.5204 51.3565 82.6987 51.1935C82.8771 51.0304 82.9668 50.8072 82.9668 50.5261C82.9668 50.1786 82.7267 49.8011 82.2435 49.3955C82.1087 49.2816 82.0076 49.1937 81.9412 49.1313C81.3813 48.6272 80.995 48.1766 80.7845 47.7754C80.5766 47.3762 80.4714 46.9235 80.4714 46.4149C80.4714 45.6232 80.6948 44.984 81.1407 44.4945C81.5871 44.0077 82.1709 43.763 82.8916 43.763C83.1472 43.763 83.3981 43.7992 83.647 43.8724C83.8979 43.9455 84.1598 44.0611 84.4366 44.2156V45.8358C84.1147 45.6813 83.8637 45.574 83.6859 45.5159C83.5075 45.4578 83.3489 45.4278 83.2115 45.4278C82.9476 45.4278 82.7309 45.5117 82.5634 45.6771C82.3959 45.842 82.3125 46.0587 82.3125 46.3268C82.3125 46.5606 82.3747 46.7799 82.5012 46.9837C82.6277 47.1874 82.9196 47.4876 83.381 47.8848C83.997 48.4148 84.3936 48.8525 84.5699 49.2022C84.7456 49.554 84.8338 49.9747 84.8338 50.4702C84.8338 51.3051 84.5974 51.9637 84.1255 52.4487C83.6553 52.9316 83.0119 53.174 82.1989 53.174C81.8899 53.174 81.6022 53.1376 81.3403 53.0666C81.0785 52.9958 80.8384 52.8864 80.615 52.7406ZM85.557 52.7406V50.835C85.7862 51.0369 86.0138 51.187 86.2347 51.2879C86.4581 51.3887 86.6832 51.4381 86.9087 51.4381C87.2198 51.4381 87.4619 51.3565 87.6403 51.1935C87.8181 51.0304 87.9088 50.8072 87.9088 50.5261C87.9088 50.1786 87.6683 49.8011 87.1856 49.3955C87.0502 49.2816 86.9491 49.1937 86.8828 49.1313C86.3228 48.6272 85.9366 48.1766 85.7261 47.7754C85.5182 47.3762 85.4129 46.9235 85.4129 46.4149C85.4129 45.6232 85.6358 44.984 86.0823 44.4945C86.5287 44.0077 87.1125 43.763 87.8331 43.763C88.0887 43.763 88.3397 43.7992 88.5885 43.8724C88.84 43.9455 89.1013 44.0611 89.3782 44.2156V45.8358C89.0567 45.6813 88.8053 45.574 88.6274 45.5159C88.4496 45.4578 88.2904 45.4278 88.153 45.4278C87.8891 45.4278 87.6724 45.5117 87.5049 45.6771C87.3375 45.842 87.254 46.0587 87.254 46.3268C87.254 46.5606 87.3162 46.7799 87.4427 46.9837C87.5692 47.1874 87.8611 47.4876 88.3226 47.8848C88.9385 48.4148 89.3357 48.8525 89.5114 49.2022C89.6872 49.554 89.7753 49.9747 89.7753 50.4702C89.7753 51.3051 89.5394 51.9637 89.0671 52.4487C88.5974 52.9316 87.9534 53.174 87.1404 53.174C86.8314 53.174 86.5437 53.1376 86.2824 53.0666C86.02 52.9958 85.78 52.8864 85.557 52.7406ZM90.9538 53.3218V51.8527H91.3981L91.6646 52.855L91.928 51.8527H92.3728V53.3218H92.0975V52.1654L91.8056 53.3218H91.52L91.2291 52.1654V53.3218H90.9538ZM92.6658 53.3218V53.0406H92.9473V53.3218H92.6658ZM93.2387 53.3218V51.8527H93.8634C94.0205 51.8527 94.1341 51.8661 94.2056 51.8924C94.2767 51.9187 94.3337 51.9655 94.3767 52.033C94.4192 52.1006 94.4405 52.1776 94.4405 52.2647C94.4405 52.3746 94.4084 52.466 94.3435 52.5378C94.2787 52.6093 94.1818 52.6549 94.0527 52.6734C94.117 52.711 94.1699 52.7519 94.2119 52.7969C94.2533 52.8417 94.3093 52.921 94.3804 53.0353L94.5598 53.3218H94.2051L93.9905 53.002C93.9143 52.8878 93.8624 52.816 93.8344 52.7861C93.8064 52.7566 93.7769 52.7363 93.7452 52.725C93.7136 52.7141 93.6638 52.7086 93.5954 52.7086H93.5358V53.3218H93.2387ZM93.5358 52.4739H93.7551C93.8971 52.4739 93.9863 52.468 94.0221 52.456C94.0574 52.4443 94.0848 52.4232 94.105 52.3939C94.1248 52.3645 94.1351 52.3278 94.1351 52.2837C94.1351 52.2341 94.1216 52.1944 94.0952 52.164C94.0693 52.1336 94.0314 52.1144 93.9832 52.1063C93.9594 52.1031 93.8873 52.1014 93.767 52.1014H93.5358V52.4739ZM94.7184 53.3218V53.0406H94.9999V53.3218H94.7184Z" fill="#4A3F74"/>
</svg>
