<svg width="100" height="100" viewBox="0 0 100 100" fill="none" xmlns="http://www.w3.org/2000/svg">
<rect width="100" height="100" fill="#320104"/>
<path d="M50.5761 89.0963C50.5761 89.0963 31.913 81.0949 26.1446 76.5944C20.0367 71.593 17.1523 64.7585 17.1523 56.9239V17.9165C31.913 10.0817 50.5761 10.7485 50.5761 10.7485C50.5761 10.7485 69.2392 10.0817 84.0001 17.9165V56.7571C84.0001 64.5918 81.1159 71.4267 75.008 76.4276C69.2392 81.0949 50.5761 89.0963 50.5761 89.0963ZM19.867 56.9239C19.867 64.2587 22.5816 70.2597 27.8411 74.4272C32.592 78.2612 46.6739 84.429 50.5761 86.0958C54.4787 84.429 68.7304 78.0944 73.3116 74.4272C78.5707 70.2597 81.2856 64.0919 81.2856 56.9239V18.5833C61.6046 16.7496 38.1906 17.7498 19.867 34.4197V56.9239Z" fill="#FFB406"/>
<path d="M69.4088 51.4217C71.9535 52.9222 72.9715 53.9224 73.1412 55.7559C73.1412 57.7563 71.7843 58.9233 69.5786 58.9233C67.7123 58.9233 65.5066 57.9231 63.9794 56.5893V61.9238C65.8456 62.924 68.0513 63.7574 70.4268 63.7574C76.1952 63.7574 78.9101 59.7567 78.9101 56.0895C79.0798 52.7554 78.0619 50.0884 73.1412 47.2547C70.9355 45.9209 69.2391 45.0875 69.2391 43.0872C69.2391 41.0868 71.1053 40.253 72.6325 40.253C74.6684 40.253 76.7044 41.4199 77.8921 42.5869V37.586C76.8741 36.7526 74.6684 35.5856 71.4448 35.7524C67.5426 35.9192 63.4707 38.5862 63.4707 43.2535C63.6399 46.4208 64.6579 48.7547 69.4088 51.4217ZM49.3882 63.4243C49.8975 63.5911 50.7457 63.7574 52.1032 63.7574C58.7198 63.7574 62.4527 57.9231 62.4527 49.5881C62.4527 41.0868 58.55 35.9192 51.5939 35.9192C48.3703 35.9192 45.8256 36.5858 43.6199 37.9195V75.5932H49.3882V63.4243ZM49.3882 40.7533C49.8975 40.5865 50.7457 40.253 51.4242 40.253C54.8176 40.253 56.1751 42.9204 56.1751 49.4213C56.1751 55.7559 54.4781 58.7565 51.0852 58.7565C50.2365 58.7565 49.558 58.5897 49.2185 58.4234V40.7533H49.3882ZM31.5734 63.7574C35.1366 63.7574 38.1905 62.924 40.3962 61.4239V36.2523H34.4581V58.0899C33.7791 58.5897 32.9309 58.7565 31.7431 58.7565C29.0287 58.7565 28.6892 56.2563 28.6892 54.7558V36.2523H22.751V54.4227C22.751 60.5905 25.805 63.7574 31.5734 63.7574ZM71.1053 86.2616V90.096H71.7842V88.5955H71.9535L72.9715 90.096H73.8202C73.8202 90.096 72.8022 88.5955 72.6325 88.4287C73.1412 88.2619 73.4807 87.9289 73.4807 87.4285C73.4807 86.9287 73.1412 86.2616 72.1233 86.2616H71.1053ZM72.1233 86.7619C72.6325 86.7619 72.8022 87.0955 72.8022 87.2618C72.8022 87.5953 72.6325 87.9289 71.9535 87.9289H71.7842V86.7619H72.1233Z" fill="#FFB406"/>
<path d="M74.8406 88.098C74.8406 89.4317 73.6529 90.5987 72.2955 90.5987C70.9385 90.5987 69.7508 89.4317 69.7508 88.098C69.7508 86.7642 70.9385 85.5973 72.2955 85.5973C73.8227 85.5973 74.8406 86.7642 74.8406 88.098ZM72.2955 84.9307C70.599 84.9307 69.0718 86.2644 69.0718 88.098C69.0718 89.7648 70.4292 91.2653 72.2955 91.2653C73.9924 91.2653 75.5191 89.9315 75.5191 88.098C75.5191 86.4312 73.9924 84.9307 72.2955 84.9307Z" fill="#FFB406"/>
</svg>
